<svg height="512" viewBox="0 0 512 512" width="512" xmlns="http://www.w3.org/2000/svg"><g id="FLAT"><path d="m472 352-32-64h-250.667l-37.333 64z" fill="#cbcbcb"/><path d="m320 288h32v72h-32z" fill="#027e2a"/><path d="m432.845 273.689a32 32 0 0 0 -28.622-17.689h-177.843a32 32 0 0 0 -27.641 15.876l-9.406 16.124h250.667z" fill="#029532"/><path d="m205.091 288-37.091 64h-16l37.333-64z" fill="#e2e2e2"/><path d="m120 352-32 8v-56h32z" fill="#cbcbcb"/><path d="m472 448h-448v-19.895a76 76 0 0 1 38.293-65.987l.183-.1a76 76 0 0 1 37.707-10.018h371.817a16 16 0 0 1 16 16v72z" fill="#029532"/><path d="m488 368v16h-24l-8-8v-24h16a16 16 0 0 1 16 16z" fill="#fbb540"/><path d="m88 352.98v23.02l-24 16h-30.88a75.923 75.923 0 0 1 29.17-29.88l.19-.11a76.052 76.052 0 0 1 25.52-9.03z" fill="#fbb540"/><circle cx="96" cy="448" fill="#b9b9b9" r="40"/><circle cx="96" cy="448" fill="#e2e2e2" r="16"/><g fill="#027e2a"><path d="m288 392h-24a8 8 0 0 1 0-16h24a8 8 0 0 1 0 16z"/><path d="m376 392.5h-24a8 8 0 0 1 0-16h24a8 8 0 0 1 0 16z"/><path d="m328 352v72a7.993 7.993 0 0 1 -1.344 4.438l-13.041 19.562h-19.23l17.615-26.422v-69.578z"/><path d="m160 352h16v96h-16z"/><path d="m488 416h-48v32h32l16-8z"/></g><path d="m40 58.745a8 8 0 0 1 -5.657-13.657 96 96 0 0 1 133.773-1.935 8 8 0 0 1 -10.984 11.635 80 80 0 0 0 -111.475 1.612 7.976 7.976 0 0 1 -5.657 2.345z" fill="#02a437"/><path d="m62.627 81.373a8 8 0 0 1 -5.656-13.657 64 64 0 0 1 90.509 0 8 8 0 1 1 -11.313 11.313 48 48 0 0 0 -67.883 0 7.98 7.98 0 0 1 -5.657 2.344z" fill="#02a437"/><path d="m119.2 104a7.974 7.974 0 0 1 -5.657-2.343 16 16 0 0 0 -22.627 0 8 8 0 1 1 -11.316-11.314 32 32 0 0 1 45.255 0 8 8 0 0 1 -5.655 13.657z" fill="#02a437"/><path d="m88 264h32v40h-32z" fill="#b9b9b9"/><circle cx="104" cy="200" fill="#005dbb" r="72"/><path d="m104 280a80 80 0 1 1 80-80 80.091 80.091 0 0 1 -80 80zm0-144a64 64 0 1 0 64 64 64.072 64.072 0 0 0 -64-64z" fill="#e2e2e2"/><path d="m112 160h-24a8 8 0 0 0 -8 8v64a8 8 0 0 0 16 0v-24h16a24 24 0 0 0 0-48zm0 32h-16v-16h16a8 8 0 0 1 0 16z" fill="#e2e2e2"/><circle cx="416" cy="448" fill="#b9b9b9" r="40"/><circle cx="416" cy="448" fill="#e2e2e2" r="16"/><path d="m488 496h-464a8 8 0 0 1 0-16h464a8 8 0 0 1 0 16z" fill="#027e2a"/></g></svg>